<?xml version="1.0" encoding="UTF-8" standalone="no"?>
<svg
   viewBox="0 0 1000 406.36518"
   class="aeo-icon aeo-icon-brand-max-aerie logo-svg logo-svg-aerie "
   version="1.1"
   id="svg192"
   sodipodi:docname="Aerie green.svg"
   xml:space="preserve"
   width="1000"
   height="406.36517"
   inkscape:version="1.2 (dc2aedaf03, 2022-05-15)"
   xmlns:inkscape="http://www.inkscape.org/namespaces/inkscape"
   xmlns:sodipodi="http://sodipodi.sourceforge.net/DTD/sodipodi-0.dtd"
   xmlns="http://www.w3.org/2000/svg"
   xmlns:svg="http://www.w3.org/2000/svg"><defs
     id="defs196" /><sodipodi:namedview
     id="namedview194"
     pagecolor="#ffffff"
     bordercolor="#999999"
     borderopacity="1"
     inkscape:showpageshadow="0"
     inkscape:pageopacity="0"
     inkscape:pagecheckerboard="0"
     inkscape:deskcolor="#d1d1d1"
     showgrid="false"
     inkscape:zoom="0.46834935"
     inkscape:cx="-169.74508"
     inkscape:cy="199.6373"
     inkscape:current-layer="svg192" /><path
     d="m 229.74744,159.38976 c 0,-0.6453 0,-0.6453 -0.6453,-0.6453 -0.32266,0.6453 0.32265,1.2906 0.6453,0.6453 z m -0.32265,-2.25856 c -0.32265,0.32265 -0.96796,-0.6453 -0.32265,0.32265 0.32265,0 0.32265,0 0.32265,-0.32265 z m 752.10023,13.2287 c 0.96795,0.6453 0,-0.32265 0,0 z M 281.6943,401.37825 c -0.32265,0.32265 -0.32265,0.32265 0.32265,0.6453 0.32265,-0.32265 0,-0.6453 -0.32265,-0.6453 z M 981.84767,264.57409 c -11.2928,11.9381 -21.61764,20.64968 -33.87839,31.29718 -22.58559,19.03642 -40.00876,33.87839 -64.53026,50.97891 -23.8762,17.10052 -53.56012,35.49164 -81.30814,20.64968 -13.874,-7.42098 -25.8121,-19.35908 -30.00657,-33.55574 -6.13037,-19.68173 -5.48507,-40.97672 -7.42098,-42.91262 -6.77568,6.77567 -31.61983,35.81429 -36.4596,40.97671 -13.2287,13.22871 -16.13257,15.48727 -22.26294,21.29499 -5.80772,5.48507 -17.10052,15.16461 -24.84415,17.74582 -8.06629,2.58122 -16.13257,3.54917 -24.5215,1.93591 -4.51712,-0.6453 -9.67954,-5.48507 -12.90606,-8.38893 -6.13037,-6.13038 -8.38893,-14.84196 -9.35688,-22.90825 -1.61326,-17.10052 0,-22.58559 -4.51712,-25.1668 -0.64531,-0.6453 -36.78225,36.13695 -40.97672,39.36346 -21.61764,17.42317 -35.8143,26.45741 -53.88277,38.39551 -10.97015,7.42098 -44.52589,11.2928 -55.17338,7.42098 -21.29499,-7.74363 -24.84415,-30.97453 -24.84415,-42.91263 0,-7.09832 0.6453,-12.5834 2.58121,-19.35907 1.93591,-7.42099 4.19447,-14.19666 6.77568,-21.29499 5.48507,-13.22871 13.874,-27.10271 21.29498,-39.36346 9.03424,-14.84196 31.29718,-56.14133 33.87839,-60.9811 2.90387,-5.80773 6.13038,-10.00219 7.74364,-16.45522 1.9359,-7.42098 1.61325,-10.00219 -6.77568,-8.38894 -5.16242,0.96796 -10.6475,0.96796 -15.48727,3.22652 -6.13037,2.58121 -8.38893,8.71158 -11.61544,13.874 -4.19447,6.45303 -9.35689,13.87401 -14.51931,20.00439 -5.16242,6.45302 -38.39551,42.91262 -42.91263,49.6883 -4.19447,5.80772 -42.58997,48.07505 -53.88277,57.10928 -5.80772,4.51712 -16.77787,15.80992 -22.58559,20.32704 -7.09833,5.80772 -12.5834,8.71158 -20.64969,13.55135 -5.16242,3.22652 -18.06847,10.97015 -24.84415,14.51931 -67.75677,34.20104 -82.92139,14.84196 -86.47055,11.9381 -22.58559,-18.71377 -21.29499,-65.82087 -25.81211,-64.85291 -5.80772,1.2906 -30.65187,27.42536 -36.78225,34.20104 -2.90386,3.54916 -22.26294,26.78006 -27.42536,30.65187 -11.61544,8.38894 -25.48945,4.19447 -31.61982,-9.35689 -7.743641,-17.10052 -3.22652,-35.81429 -5.48508,-36.78225 -2.903861,0.64531 -13.228701,11.61545 -15.487261,13.87401 -3.54916,3.54916 -25.48945,28.71597 -34.20104,33.23309 -9.35689,5.16242 -13.55136,11.29279 -27.74801,6.45302 -5.80773,-1.93591 -10.32485,-9.35689 -14.1966601,-13.874 -5.80773,-6.45303 -12.26075,-32.26514 -6.45303,-53.23747 4.51712,-15.48727 8.7115901,-37.75021 15.8099201,-50.65626 10.97014,-20.32703 18.06847,-32.58778 32.26513,-50.97891 6.13037,-8.06628 38.71816,-40.00876 46.46179,-45.81649 10.324841,-7.74363 20.327031,-15.80991 31.297181,-22.58559 8.06627,-5.16242 13.55135,-8.38893 23.23089,-10.00219 5.48507,-0.96795 18.71377,-1.93591 38.07285,10.97014 2.58121,1.93591 3.22652,-1.9359 5.80773,-4.51711 9.03423,-8.38894 18.39112,-10.97015 32.58778,-9.03424 6.13037,0.96795 4.83977,14.19666 2.58121,19.68173 -4.83977,27.74801 -21.94029,49.6883 -38.71816,71.62859 -20.32703,26.78006 -39.36346,55.17338 -53.23747,85.82525 -4.83977,10.97015 -13.22869,32.91044 -9.35688,44.84854 1.61325,4.51712 14.5193,-9.35689 15.16461,-10.00219 4.51712,-5.80773 11.61544,-12.5834 16.13256,-18.71378 8.06629,-10.97014 20.97234,-26.13476 28.71597,-35.16899 7.74363,-9.03424 22.58559,-21.94029 31.29718,-32.91044 21.29499,-27.10271 34.20104,-43.88058 56.14133,-68.07943 5.48507,-6.13037 18.71378,-19.35908 27.74801,-25.48945 a 853.82574,853.82574 0 0 0 22.5856,-16.13257 c 12.90605,-9.35689 20.32703,-14.19666 33.87838,-22.26294 57.75459,-34.84634 72.59655,-19.03643 75.50041,-13.87401 2.58121,4.19447 3.87182,10.32485 4.51712,14.51931 1.61326,10.6475 -1.93591,26.78006 -6.13037,36.78225 -5.48508,12.90606 -19.03643,27.10272 -29.68393,36.13695 -9.35688,8.38894 -19.03642,15.48727 -29.03861,23.55355 -13.87401,11.2928 -29.03862,19.35908 -42.91263,28.07066 -12.5834,8.06629 -22.58559,17.42318 -33.87839,27.42537 -10.97014,9.35688 -20.00438,22.26294 -28.71597,33.55573 -6.13037,7.74364 -12.90605,30.00658 3.22652,29.03862 14.84196,-0.6453 35.81429,-4.51712 65.17556,-23.87619 30.32923,-20.00439 48.3977,-38.39551 61.30375,-49.68831 10.97015,-9.35689 45.81649,-44.84853 57.10929,-58.72254 9.35689,-11.2928 21.29499,-23.23089 27.74801,-37.42755 4.51712,-9.67954 -18.71377,-21.94029 -18.06847,-38.39551 0.32265,-5.48507 2.25856,-9.03424 4.51712,-13.87401 13.2287,-28.71596 45.49383,-14.51931 47.42974,-4.51712 0.6453,3.22652 0.96795,6.13038 0.96795,9.03424 0.32266,3.22651 -1.2906,16.77787 3.22652,17.42317 6.77568,0.96796 14.51931,-2.58121 21.29499,-3.22651 8.38893,-0.6453 16.77786,-0.32265 25.1668,-0.6453 10.00219,-0.64531 24.5215,2.25856 29.68392,11.9381 -0.32265,1.2906 8.71159,13.55135 0.6453,27.10271 -6.77567,11.29279 -22.58559,34.52369 -26.4574,39.04081 -8.38894,10.00219 -10.6475,11.9381 -18.39113,22.26294 -18.39113,24.84415 -30.65188,38.07285 -46.46179,67.75678 -6.45303,12.26075 -14.84196,24.19885 -14.51931,38.3955 0,5.80773 2.25856,11.2928 7.74363,13.87401 4.51712,2.25856 12.90605,2.25856 20.97234,-1.61326 5.48507,-2.58121 12.90605,-6.45302 19.68173,-10.97014 5.80772,-3.87182 19.03643,-15.16461 24.19885,-20.00438 9.35689,-9.03424 12.26075,-9.67954 21.94029,-18.71378 11.29279,-10.00219 20.00438,-19.68173 30.32922,-30.97453 9.35689,-10.00219 18.06848,-19.35908 25.81211,-31.29718 9.03424,-13.874 15.16461,-24.5215 23.55354,-36.45959 3.87182,-5.48508 6.77568,-12.26076 9.67954,-18.39113 3.54917,-7.09833 34.5237,-50.65626 39.04081,-56.14133 8.38894,-9.67954 16.13257,-20.32703 26.45741,-28.07067 4.19447,-3.22651 8.38894,-3.54916 12.90606,-5.80772 a 26.276724,26.276724 0 0 1 16.13256,-2.90386 c 9.03424,-1.29061 17.74582,6.13037 11.9381,15.80991 -12.90605,21.61764 -25.1668,44.52589 -38.07286,65.17557 -9.03423,14.19666 -18.06847,28.71597 -27.42536,42.91263 -8.38893,12.90605 -13.55135,27.42536 -21.94029,40.33141 a 108.99162,108.99162 0 0 0 -11.61545,23.8762 c -1.2906,3.87182 -5.16242,14.51931 -1.9359,18.39113 7.09833,8.06628 23.87619,-1.93591 29.68392,-6.77568 11.29279,-9.35689 25.8121,-22.26294 35.49164,-33.23309 7.74364,-9.03424 30.65188,-37.7502 38.71816,-48.72035 24.5215,-34.20104 85.5026,-83.24404 90.66502,-87.11586 18.71378,-14.5193 45.81649,-31.61982 60.9811,-39.04081 9.67954,-4.83977 27.10271,-16.132561 39.04081,-13.874002 13.55136,2.903862 20.32704,13.228702 21.61764,23.876202 1.93591,16.45521 -3.54916,26.13475 -5.80772,31.94248 -10.00219,27.42536 -37.1049,50.65625 -59.6905,68.07943 -24.84415,19.35907 -50.3336,31.29717 -76.79101,47.75239 -7.09833,4.51712 -15.80992,11.9381 -21.61764,18.06848 -5.16242,5.16242 -20.97234,20.64968 -19.03643,51.62421 0.96796,17.42317 50.97891,-7.74363 58.72254,-15.80992 2.58121,-2.58121 40.00877,-32.26513 60.9811,-54.85072 11.61545,-12.5834 21.94029,-26.45741 34.84635,-37.42756 4.83977,-4.19446 17.10052,-9.67954 24.84415,-3.22651 11.61547,10.97015 -5.80773,29.68392 -14.19666,38.39551 z m -0.32265,-94.21419 c 0.96795,0.6453 0,-0.32265 0,0 z m -99.69926,44.84854 c 9.67954,-6.13038 19.35908,-12.26075 28.07066,-19.35908 8.71159,-7.42098 17.10052,-15.16462 26.13476,-22.26294 10.97015,-8.38894 19.35908,-18.39113 20.64969,-28.71597 1.61325,-14.84196 -46.13914,19.03643 -50.33361,22.26294 -15.16461,12.26075 -37.7502,24.19885 -42.26732,43.55793 -1.61326,7.42098 10.00219,9.35689 17.74582,4.51712 z m -569.80224,23.55354 c 1.93591,4.51712 22.26295,-5.80772 28.39332,-9.67954 8.71159,-5.48507 17.74582,-13.55135 25.81211,-19.68173 6.77567,-5.16242 13.874,-11.29279 20.64968,-17.42317 8.06628,-7.09833 16.13257,-13.2287 14.51931,-26.45741 -0.6453,-6.13037 -19.68173,5.16242 -22.58559,7.09833 -66.14352,41.62202 -69.69269,63.23966 -66.78883,66.14352 z m -183.91124,38.07286 c 0,0 18.39112,-28.07067 22.90824,-39.04081 2.25855,-5.16242 8.71158,-22.26294 9.67953,-25.81211 3.54917,-11.61545 6.77568,-17.42317 0.64531,-28.71596 -3.22652,-5.80773 -15.16461,-0.96796 -17.74583,2.25855 -6.77567,8.71159 -15.8099,17.74583 -21.61763,25.16681 -7.74363,9.35689 -12.5834,15.80991 -18.06847,23.23089 -8.711591,11.2928 -16.777871,22.90825 -24.521501,34.84635 -2.90386,4.83976 -6.77568,10.32484 -9.03424,15.16461 -1.93591,3.87181 -9.35689,16.13256 -11.2928,19.35908 a 495.7473,495.7473 0 0 0 -19.03642,33.55573 c -5.48508,10.6475 -11.61545,22.5856 -13.87401,34.20104 -1.93591,10.97015 0.6453,26.78006 11.9381,19.35908 4.83977,-3.22651 11.61545,-7.42098 15.80991,-11.61544 3.87182,-3.87182 14.51931,-13.55136 18.39113,-17.74583 10.64749,-12.5834 16.77787,-22.26294 23.55355,-33.55573 12.260751,-20.00439 19.036421,-30.97453 32.265131,-50.65626 z M 801.80823,65.49822 c 1.61326,1.29061 11.9381,1.61326 13.87401,1.61326 5.16242,0.32265 13.2287,-10.00219 16.13256,-13.87401 4.83977,-5.80772 10.0022,-11.61545 14.51931,-17.74582 3.87182,-8.06628 8.71159,-14.51931 8.06629,-24.19885 C 853.75509,4.19447 849.88328,0.64531 844.07556,0 c -15.80992,8.06629 -34.5237,25.16681 -41.94468,43.55793 -2.25856,5.16242 -5.48507,18.06848 -0.32265,21.94029 z"
     id="path190"
     style="fill:#328648;fill-opacity:1;stroke-width:12.9061" /></svg>
